<svg xmlns="http://www.w3.org/2000/svg" viewBox="0 0 600 205"><defs><style>.cls-1{fill:#fff;}.cls-2{fill:#43a36a;}</style></defs><title>SR</title><g id="sisrural_extenso" data-name="sisrural extenso"><g id="sisrural_negativo" data-name="sisrural negativo"><path class="cls-1" d="M165.24,144.72q-11.55,0-18.65-5.24T138,124.68l15.74-2.38A11,11,0,0,0,158,129a13.85,13.85,0,0,0,8.41,2.43,11,11,0,0,0,6.45-1.61,5.21,5.21,0,0,0,2.26-4.5,4.49,4.49,0,0,0-.9-2.92,9.56,9.56,0,0,0-4.05-2.18q-3.13-1.07-9.76-2.82a55.76,55.76,0,0,1-11.95-4.31,16,16,0,0,1-6.45-5.69,15.3,15.3,0,0,1-2-8,17.46,17.46,0,0,1,3-10.21,19.11,19.11,0,0,1,8.46-6.68,32.34,32.34,0,0,1,12.88-2.35,34,34,0,0,1,12.73,2.21,22.17,22.17,0,0,1,9,6.28,18.92,18.92,0,0,1,4.22,9.62l-15.74,2.83a7.63,7.63,0,0,0-2.95-5.37,12.56,12.56,0,0,0-6.91-2.32,12.37,12.37,0,0,0-6.81,1.12,4.45,4.45,0,0,0-2.57,4.08,3.56,3.56,0,0,0,1.09,2.66,12.85,12.85,0,0,0,4.59,2.21q3.48,1.14,10.61,2.94a46.64,46.64,0,0,1,11.18,4.22,15.81,15.81,0,0,1,6.14,5.78,16.13,16.13,0,0,1,1.93,8.12q0,9.39-6.79,14.77T165.24,144.72Zm53.73.22V117.7a15.39,15.39,0,0,0-15.39-15.39h0v42.63Zm39.47-.22q-11.55,0-18.65-5.24t-8.63-14.8l15.74-2.38a11,11,0,0,0,4.26,6.74,13.9,13.9,0,0,0,8.42,2.43,11,11,0,0,0,6.45-1.61,5.21,5.21,0,0,0,2.26-4.5,4.49,4.49,0,0,0-.9-2.92,9.55,9.55,0,0,0-4.06-2.18q-3.13-1.07-9.75-2.82a55.36,55.36,0,0,1-12-4.31,15.92,15.92,0,0,1-6.45-5.69,15.2,15.2,0,0,1-2-8,17.46,17.46,0,0,1,3-10.21,19.2,19.2,0,0,1,8.47-6.68,32.34,32.34,0,0,1,12.88-2.35,34,34,0,0,1,12.73,2.21,22.17,22.17,0,0,1,9,6.28,18.92,18.92,0,0,1,4.22,9.62l-15.74,2.83a7.63,7.63,0,0,0-3-5.37,12.56,12.56,0,0,0-6.91-2.32,12.42,12.42,0,0,0-6.82,1.12,4.46,4.46,0,0,0-2.57,4.08,3.57,3.57,0,0,0,1.1,2.66,12.85,12.85,0,0,0,4.59,2.21q3.48,1.14,10.61,2.94A46.81,46.81,0,0,1,276,110.67a15.81,15.81,0,0,1,6.14,5.78,16.13,16.13,0,0,1,1.93,8.12q0,9.39-6.79,14.77T258.44,144.72ZM219,95.6h0V80.21H203.58A15.39,15.39,0,0,0,219,95.6Zm-143.58,0h0V80.21H60A15.39,15.39,0,0,0,75.39,95.6Z"/><path class="cls-2" d="M332.14,81.89V96.26a15.86,15.86,0,0,0-5.92-.53,17.12,17.12,0,0,0-6.08,1.55,14.23,14.23,0,0,0-4.59,3.31,13.94,13.94,0,0,0-2.82,4.87,19.14,19.14,0,0,0-1,6.31v33.17H296.25v-63h13.59v9.84a23.21,23.21,0,0,1,1.7-2.6,16.73,16.73,0,0,1,4.86-4.3,19.72,19.72,0,0,1,4.82-2.12,25.94,25.94,0,0,1,5.37-1A29.43,29.43,0,0,1,332.14,81.89Zm51.07,0v31a27.11,27.11,0,0,1-1.28,9.14,12.81,12.81,0,0,1-3.25,5.26,10.55,10.55,0,0,1-4.25,2.41,15.81,15.81,0,0,1-4.24.62c-3.28,0-5.82-.73-7.61-2.21a12.38,12.38,0,0,1-3.88-5.49,24.12,24.12,0,0,1-1.41-6.54c-.16-2.17-.23-3.95-.23-5.34V81.89H341.43v34.3c0,1,.08,2.64.23,4.87a39.07,39.07,0,0,0,1.3,7.39,25.81,25.81,0,0,0,3.6,7.78,19.26,19.26,0,0,0,7,6.17q4.54,2.43,11.72,2.43,9,0,14.92-3.91a25.48,25.48,0,0,0,4.89-4.2v8.05h13.59V81.89Zm61.05-.15a25.94,25.94,0,0,0-5.37,1,19.55,19.55,0,0,0-4.82,2.12,16.6,16.6,0,0,0-4.86,4.3,22.45,22.45,0,0,0-1.7,2.61V81.89H413.92v63.05h15.52V111.77a19.41,19.41,0,0,1,.95-6.31,13.55,13.55,0,0,1,7.42-8.18,17.07,17.07,0,0,1,6.08-1.55,15.86,15.86,0,0,1,5.92.53V81.89A29.43,29.43,0,0,0,444.26,81.74Zm65.23,23.92v39.28H496V135.5a26.68,26.68,0,0,1-7.72,6.47c-3.46,1.83-7.82,2.75-13.11,2.75a22.68,22.68,0,0,1-11.12-2.52,17.17,17.17,0,0,1-6.91-6.73,18.81,18.81,0,0,1-2.34-9.32,22.07,22.07,0,0,1,1.3-7.75,15.71,15.71,0,0,1,4.22-6.2,23.18,23.18,0,0,1,7.84-4.5,55.9,55.9,0,0,1,8.09-2.21q4.69-1,10.64-1.84l7.39-1.1a9.31,9.31,0,0,0-2.46-5.77c-1.75-1.7-4.65-2.55-8.72-2.55A17.43,17.43,0,0,0,476,95.87a9.44,9.44,0,0,0-5.15,5.83L457,97.28A23.61,23.61,0,0,1,465.67,85q6.4-4.77,17.44-4.76a38.79,38.79,0,0,1,14.37,2.49,18,18,0,0,1,9.51,8.6,18.34,18.34,0,0,1,2.16,6.79C509.37,100.34,509.49,102.87,509.49,105.66Zm-15.49,13c.08-1.35.14-2.55.17-3.62-2.54.43-4.72.8-6.54,1.13-2.82.51-5.11,1-6.84,1.39a40.86,40.86,0,0,0-4.59,1.36,15.54,15.54,0,0,0-3.65,2,7,7,0,0,0-2,2.29,5.85,5.85,0,0,0-.65,2.78,6.17,6.17,0,0,0,1,3.59,6.61,6.61,0,0,0,3,2.29,12,12,0,0,0,4.59.79,15.41,15.41,0,0,0,7.16-1.5,15.85,15.85,0,0,0,4.64-3.42,15.23,15.23,0,0,0,2.35-3.22A15.61,15.61,0,0,0,494,118.65Zm46,26.29V59.81H524.61v85.13ZM109.12,104.77v15.39h0a15.39,15.39,0,0,0,15.39-15.39H109.12Zm15.39,24.55H109.12v15.4h0A15.39,15.39,0,0,0,124.51,129.32ZM100,95.6h0A15.39,15.39,0,0,0,84.56,80.21h0V95.6Zm24.56-15.39h0A15.39,15.39,0,0,0,109.12,95.6h15.39ZM84.56,104.77v15.39H100a15.39,15.39,0,0,0-15.39-15.39ZM100,129.32H84.56A15.39,15.39,0,0,0,100,144.72h0ZM75.39,104.77h0A15.39,15.39,0,0,0,60,120.16H75.39ZM60,144.72h0a15.39,15.39,0,0,0,15.39-15.4H60Z"/></g></g></svg>
